<?xml version="1.0" standalone="no"?>
<!DOCTYPE svg PUBLIC "-//W3C//DTD SVG 20010904//EN"
 "http://www.w3.org/TR/2001/REC-SVG-20010904/DTD/svg10.dtd">
<svg version="1.0" xmlns="http://www.w3.org/2000/svg"
 width="102.000000pt" height="102.000000pt" viewBox="0 0 102.000000 102.000000"
 preserveAspectRatio="xMidYMid meet">
<metadata>
Created by potrace 1.14, written by Peter Selinger 2001-2017
</metadata>
<g transform="translate(0.000000,102.000000) scale(0.100000,-0.100000)"
fill="#000000" stroke="none">
<path d="M129 735 c-1 -8 -2 -23 -3 -32 -1 -12 7 -19 22 -21 24 -4 24 -5 24
-132 -1 -163 0 -158 -24 -162 -19 -2 -23 -9 -21 -32 1 -16 4 -30 5 -32 3 -2
122 -6 166 -5 18 1 22 7 22 36 0 31 -3 35 -25 35 -24 0 -25 3 -25 53 1 60 17
87 52 87 43 0 52 -23 49 -121 l-2 -90 73 3 c68 3 72 4 71 26 -2 40 -3 42 -23
42 -18 0 -20 6 -19 58 2 71 -15 108 -61 140 -29 20 -44 23 -90 19 l-55 -5 3
74 4 74 -71 0 c-56 0 -71 -3 -72 -15z"/>
<path d="M688 594 c-16 -8 -28 -10 -28 -4 0 6 -27 10 -65 10 l-65 0 0 -35 c0
-30 3 -35 23 -35 20 0 22 -4 21 -47 -1 -27 -2 -85 -3 -130 -1 -74 -3 -83 -20
-83 -20 0 -30 -23 -23 -53 3 -15 17 -17 128 -17 l124 0 0 35 c0 38 -1 38 -68
35 l-43 -2 2 41 c3 34 5 38 20 30 52 -27 149 1 184 55 21 32 21 105 0 145 -32
63 -123 90 -187 55z m85 -68 c29 -22 30 -74 2 -102 -40 -39 -91 -25 -100 28
-6 32 11 82 25 73 5 -3 10 -1 10 4 0 15 42 13 63 -3z"/>
</g>
</svg>
